mtllib centrifuge.mtl
v 1.38777878078145E-17 0.025 -0.115
vt 0 0.25
vn 1.54197636426876E-16 0 -1
v -0.020755428314209 0.025 -0.112574035644531
vt 0 0.212962985038757
vn -0.230615869164467 0 -0.973044872283936
v -0.0403919258117676 0.025 -0.105426940917969
vt 0 0.175925940275192
vn -0.448799192905426 0 -0.893632650375366
v -0.0578508834838867 0.025 -0.0939440002441406
vt 0 0.138888895511627
vn -0.642787635326385 0 -0.766044437885284
v -0.0721910858154297 0.025 -0.078744270324707
vt 0 0.101851850748062
vn -0.802123188972473 0 -0.59715861082077
v -0.0826394500732422 0.025 -0.0606471786499023
vt 0 0.0648148134350777
vn -0.918216109275818 0 -0.396079778671265
v -0.088632698059082 0.025 -0.0406283378601074
vt 0 0.0277778096497059
vn -0.984807729721069 0 -0.173648178577423
v -0.09 0.025 -0.025
vt 0 1
vn -1 0 -1.22464685258517E-16
v -0.0898477325439453 0.025 -0.0197669658660889
vt 0 0.990740776062012
vn -0.998308181762695 0 0.0581448301672935
v -0.0862190551757813 0.025 0.000812290966510773
vt 0 0.953703701496124
vn -0.957989513874054 0 0.286803245544434
v -0.0779422836303711 0.025 0.02
vt 0 0.916666626930237
vn -0.866025388240814 0 0.5
v -0.0654636306762695 0.025 0.0367617492675781
vt 0 0.879629611968994
vn -0.727373659610748 0 0.686241626739502
v -0.0494558067321777 0.025 0.050193904876709
vt 0 0.842592597007751
vn -0.549508988857269 0 0.83548778295517
v -0.0307818126678467 0.025 0.0595723342895508
vt 0 0.805555522441864
vn -0.342020153999329 0 0.939692616462708
v -0.0104483623504639 0.025 0.0643914489746094
vt 0 0.768518507480621
vn -0.116092912852764 0 0.99323832988739
v 0.0104483623504639 0.025 0.0643914489746094
vt 0 0.731481492519379
vn 0.116092912852764 0 0.99323832988739
v 0.0307818126678467 0.025 0.0595723342895508
vt 0 0.694444417953491
vn 0.342020153999329 0 0.939692616462708
v 0.0494558067321777 0.025 0.050193904876709
vt 0 0.657407462596893
vn 0.549508988857269 0 0.83548778295517
v 0.0654636306762695 0.025 0.0367617492675781
vt 0 0.620370328426361
vn 0.727373659610748 0 0.686241626739502
v 0.0779422836303711 0.025 0.02
vt 0 0.583333373069763
vn 0.866025388240814 0 0.5
v 0.0862190551757813 0.025 0.000812290966510773
vt 0 0.546296298503876
vn 0.957989513874054 0 0.286803245544434
v 0.0898477325439453 0.025 -0.0197669658660889
vt 0 0.509259283542633
vn 0.998308181762695 0 0.0581448301672935
v 0.088632698059082 0.025 -0.0406283378601074
vt 0 0.472222238779068
vn 0.984807729721069 0 -0.173648178577423
v 0.0826394500732422 0.025 -0.0606471786499023
vt 0 0.435185194015503
vn 0.918216109275818 0 -0.396079778671265
v 0.0721910858154297 0.025 -0.078744270324707
vt 0 0.398148149251938
vn 0.802123188972473 0 -0.59715861082077
v 0.0578508834838867 0.025 -0.0939440002441406
vt 0 0.361111104488373
vn 0.642787635326385 0 -0.766044437885284
v 0.0403919258117676 0.025 -0.105426940917969
vt 0 0.32407408952713
vn 0.448799192905426 0 -0.893632650375366
v 0.020755428314209 0.025 -0.112574035644531
vt 0 0.287037044763565
vn 0.230615869164467 0 -0.973044872283936
v 0.09 0.105 -0.025
vt 1 0.5
vn 1 0 0
v 0.0875740356445313 0.105 -0.00424457168579102
vt 1 0.537037014961243
vn 0.973044872283936 0 0.230615869164467
v 0.0804269409179687 0.105 0.0153919258117676
vt 1 0.57407408952713
vn 0.893632650375366 0 0.448799192905426
v 0.0689440002441406 0.105 0.0328508834838867
vt 1 0.611111104488373
vn 0.766044437885284 0 0.642787635326385
v 0.0537442741394043 0.105 0.0471910858154297
vt 1 0.648148119449615
vn 0.59715861082077 0 0.802123188972473
v 0.0356471786499023 0.105 0.0576394500732422
vt 1 0.685185194015503
vn 0.396079778671265 0 0.918216109275818
v 0.0156283359527588 0.105 0.063632698059082
vt 1 0.722222208976746
vn 0.173648178577423 0 0.984807729721069
v -0.00523303461074829 0.105 0.0648477325439453
vt 1 0.759259283542633
vn -0.0581448301672935 0 0.998308181762695
v -0.0258122901916504 0.105 0.0612190551757813
vt 1 0.796296298503876
vn -0.286803245544434 0 0.957989513874054
v -0.045 0.105 0.0529422874450684
vt 1 0.833333313465118
vn -0.5 0 0.866025388240814
v -0.0617617492675781 0.105 0.0404636268615723
vt 1 0.870370388031006
vn -0.686241626739502 0 0.727373659610748
v -0.0751939010620117 0.105 0.0244558086395264
vt 1 0.907407402992249
vn -0.83548778295517 0 0.549508988857269
v -0.0845723342895508 0.105 0.00578181266784668
vt 1 0.944444358348846
vn -0.939692616462708 0 0.342020153999329
v -0.0893914489746094 0.105 -0.0145516376495361
vt 1 0.981481432914734
vn -0.99323832988739 0 0.116092912852764
v -0.09 0.105 -0.025
vt 1 0
vn -1 0 1.22464685258517E-16
v -0.0893914489746094 0.105 -0.0354483604431152
vt 1 0.0185185391455889
vn -0.99323832988739 0 -0.116092912852764
v -0.0845723342895508 0.105 -0.0557818145751953
vt 1 0.0555555820465088
vn -0.939692616462708 0 -0.342020153999329
v -0.0751939010620117 0.105 -0.074455810546875
vt 1 0.0925926193594933
vn -0.83548778295517 0 -0.549508988857269
v -0.0617617492675781 0.105 -0.0904636306762695
vt 1 0.129629626870155
vn -0.686241626739502 0 -0.727373659610748
v -0.045 0.105 -0.102942283630371
vt 1 0.16666667163372
vn -0.5 0 -0.866025388240814
v -0.0258122901916504 0.105 -0.111219055175781
vt 1 0.203703701496124
vn -0.286803245544434 0 -0.957989513874054
v -0.00523303461074829 0.105 -0.114847732543945
vt 1 0.240740746259689
vn -0.0581448301672935 0 -0.998308181762695
v 0.0156283359527588 0.105 -0.113632698059082
vt 1 0.277777791023254
vn 0.173648178577423 0 -0.984807729721069
v 0.0356471786499023 0.105 -0.107639450073242
vt 1 0.314814805984497
vn 0.396079778671265 0 -0.918216109275818
v 0.0537442741394043 0.105 -0.0971910858154297
vt 1 0.351851880550385
vn 0.59715861082077 0 -0.802123188972473
v 0.0689440002441406 0.105 -0.0828508834838867
vt 1 0.388888865709305
vn 0.766044437885284 0 -0.642787635326385
v 0.0804269409179687 0.105 -0.0653919296264648
vt 1 0.42592591047287
vn 0.893632650375366 0 -0.448799192905426
v 0.0875740356445313 0.105 -0.045755428314209
vt 1 0.462962955236435
vn 0.973044872283936 0 -0.230615869164467
v -0.09 0.025 -0.025
vt 0 0
vn -1 0 -1.22464685258517E-16
v -0.09 0.105 -0.025
vt 1 1
vn -1 0 1.22464685258517E-16
v 0.09 0.105 -0.025
vt 1 0.5
vn 0 1 0
v 0.0875740356445313 0.105 -0.045755428314209
vt 0.986522376537323 0.384496629238129
vn 0 1 0
v 0.0804269409179687 0.105 -0.0653919296264648
vt 0.946816265583038 0.27522012591362
vn 0 1 0
v 0.0689440002441406 0.105 -0.0828508834838867
vt 0.883022248744965 0.178061529994011
vn 0 1 0
v 0.0537442741394043 0.105 -0.0971910858154297
vt 0.798579275608063 0.0982587188482285
vn 0 1 0
v 0.0356471786499023 0.105 -0.107639450073242
vt 0.698039889335632 0.0401139073073864
vn 0 1 0
v 0.0156283359527588 0.105 -0.113632698059082
vt 0.586824119091034 0.00676166545599699
vn 0 1 0
v -0.00523303461074829 0.105 -0.114847732543945
vt 0.470927596092224 0
vn 0 1 0
v -0.0258122901916504 0.105 -0.111219055175781
vt 0.356598377227783 0.0201934892684221
vn 0 1 0
v -0.045 0.105 -0.102942283630371
vt 0.25 0.0662534609436989
vn 0 1 0
v -0.0617617492675781 0.105 -0.0904636306762695
vt 0.156879186630249 0.135696858167648
vn 0 1 0
v -0.0751939010620117 0.105 -0.074455810546875
vt 0.0822561010718346 0.224779888987541
vn 0 1 0
v -0.0845723342895508 0.105 -0.0557818145751953
vt 0.0301536992192268 0.328700125217438
vn 0 1 0
v -0.0893914489746094 0.105 -0.0354483604431152
vt 0.00338082504458725 0.441855192184448
vn 0 1 0
v -0.09 0.105 -0.025
vt 0 0.5
vn 0 1 0
v -0.0893914489746094 0.105 -0.0145516376495361
vt 0.00338082504458725 0.558144807815552
vn 0 1 0
v -0.0845723342895508 0.105 0.00578181266784668
vt 0.0301536992192268 0.671299874782562
vn 0 1 0
v -0.0751939010620117 0.105 0.0244558086395264
vt 0.0822561010718346 0.775220036506653
vn 0 1 0
v -0.0617617492675781 0.105 0.0404636268615723
vt 0.156879186630249 0.864303112030029
vn 0 1 0
v -0.045 0.105 0.0529422874450684
vt 0.25 0.933746516704559
vn 0 1 0
v -0.0258122901916504 0.105 0.0612190551757813
vt 0.356598377227783 0.979806482791901
vn 0 1 0
v -0.00523303461074829 0.105 0.0648477325439453
vt 0.470927596092224 1
vn 0 1 0
v 0.0156283359527588 0.105 0.063632698059082
vt 0.586824119091034 0.99323832988739
vn 0 1 0
v 0.0356471786499023 0.105 0.0576394500732422
vt 0.698039889335632 0.959886074066162
vn 0 1 0
v 0.0537442741394043 0.105 0.0471910858154297
vt 0.798579275608063 0.901741325855255
vn 0 1 0
v 0.0689440002441406 0.105 0.0328508834838867
vt 0.883022248744965 0.821938514709473
vn 0 1 0
v 0.0804269409179687 0.105 0.0153919258117676
vt 0.946816265583038 0.724779903888702
vn 0 1 0
v 0.0875740356445313 0.105 -0.00424457168579102
vt 0.986522376537323 0.615503370761871
vn 0 1 0
v 0.095 0.025 0.115
vt 1 1
vn 0 1 0
v 0.095 0.025 -0.115
vt 1 0
vn 0 1 0
v 1.38777878078145E-17 0.025 -0.115
vt 0.5 0
vn 0 1 0
v 0.020755428314209 0.025 -0.112574035644531
vt 0.609239101409912 0.0105476574972272
vn 0 1 0
v 0.0403919258117676 0.025 -0.105426940917969
vt 0.712589085102081 0.041622020304203
vn 0 1 0
v 0.0578508834838867 0.025 -0.0939440002441406
vt 0.804478347301483 0.0915478393435478
vn 0 1 0
v 0.0721910858154297 0.025 -0.078744270324707
vt 0.87995308637619 0.157633617520332
vn 0 1 0
v 0.0826394500732422 0.025 -0.0606471786499023
vt 0.9349445104599 0.236316621303558
vn 0 1 0
v 0.088632698059082 0.025 -0.0406283378601074
vt 0.966487944126129 0.323355048894882
vn 0 1 0
v 0.0898477325439453 0.025 -0.0197669658660889
vt 0.972882866859436 0.414056688547134
vn 0 1 0
v 0.0862190551757813 0.025 0.000812290966510773
vt 0.95378452539444 0.503531694412231
vn 0 1 0
v 0.0779422836303711 0.025 0.02
vt 0.91022253036499 0.586956560611725
vn 0 1 0
v 0.0654636306762695 0.025 0.0367617492675781
vt 0.844545423984528 0.659833669662476
vn 0 1 0
v 0.0494558067321777 0.025 0.050193904876709
vt 0.76029372215271 0.718234360218048
vn 0 1 0
v 0.0307818126678467 0.025 0.0595723342895508
vt 0.662009477615356 0.759010136127472
vn 0 1 0
v 0.0104483623504639 0.025 0.0643914489746094
vt 0.55499142408371 0.779962778091431
vn 0 1 0
v -0.0104483623504639 0.025 0.0643914489746094
vt 0.445008605718613 0.779962778091431
vn 0 1 0
v -0.0307818126678467 0.025 0.0595723342895508
vt 0.337990462779999 0.759010136127472
vn 0 1 0
v -0.0494558067321777 0.025 0.050193904876709
vt 0.23970627784729 0.718234360218048
vn 0 1 0
v -0.0654636306762695 0.025 0.0367617492675781
vt 0.155454605817795 0.659833669662476
vn 0 1 0
v -0.0779422836303711 0.025 0.02
vt 0.0897774174809456 0.586956560611725
vn 0 1 0
v -0.0862190551757813 0.025 0.000812290966510773
vt 0.0462154820561409 0.503531694412231
vn 0 1 0
v -0.0898477325439453 0.025 -0.0197669658660889
vt 0.0271171722561121 0.414056688547134
vn 0 1 0
v -0.09 0.025 -0.025
vt 0.0263157654553652 0.391304343938828
vn 0 1 0
v -0.088632698059082 0.025 -0.0406283378601074
vt 0.0335121229290962 0.323355048894882
vn 0 1 0
v -0.0826394500732422 0.025 -0.0606471786499023
vt 0.0650555267930031 0.236316621303558
vn 0 1 0
v -0.0721910858154297 0.025 -0.078744270324707
vt 0.120046891272068 0.157633617520332
vn 0 1 0
v -0.0578508834838867 0.025 -0.0939440002441406
vt 0.195521652698517 0.0915478393435478
vn 0 1 0
v -0.0403919258117676 0.025 -0.105426940917969
vt 0.287410914897919 0.041622020304203
vn 0 1 0
v -0.020755428314209 0.025 -0.112574035644531
vt 0.39076092839241 0.0105476574972272
vn 0 1 0
v 1.38777878078145E-17 0.025 -0.115
vt 0.5 0
vn 0 1 0
v -0.095 0.025 -0.115
vt 0 0
vn 0 1 0
v -0.095 0.025 0.115
vt 0 1
vn 0 1 0
v 0.095 -0.025 -0.115
vt 1 0
vn 0 -1 0
v 0.095 -0.025 0.115
vt 1 1
vn 0 -1 0
v -0.095 -0.025 0.115
vt 0 1
vn 0 -1 0
v -0.095 -0.025 -0.115
vt 0 0
vn 0 -1 0
v -0.095 0.025 0.115
vt 1 1
vn 0 0 1
v -0.095 -0.025 0.115
vt 0 1
vn 0 0 1
v 0.095 -0.025 0.115
vt 0 0
vn 0 0 1
v 0.095 0.025 0.115
vt 1 0
vn 0 0 1
v -0.095 0.025 -0.115
vt 0 0
vn -1 0 0
v -0.095 -0.025 -0.115
vt 1 0
vn -1 0 0
v -0.095 -0.025 0.115
vt 1 1
vn -1 0 0
v -0.095 0.025 0.115
vt 0 1
vn -1 0 0
v 0.095 0.025 -0.115
vt 0 0
vn 0 0 -1
v 0.095 -0.025 -0.115
vt 1 0
vn 0 0 -1
v -0.095 -0.025 -0.115
vt 1 1
vn 0 0 -1
v -0.095 0.025 -0.115
vt 0 1
vn 0 0 -1
v 1.38777878078145E-17 0.025 -0.115
vt 0 0.5
vn 0 0 -1
v 0.095 0.025 0.115
vt 1 1
vn 1 0 0
v 0.095 -0.025 0.115
vt 0 1
vn 1 0 0
v 0.095 -0.025 -0.115
vt 0 0
vn 1 0 0
v 0.095 0.025 -0.115
vt 1 0
vn 1 0 0
usemtl Mat0
f 2/2/2 50/50/50 1/1/1
f 2/2/2 49/49/49 50/50/50
f 2/2/2 3/3/3 49/49/49
f 49/49/49 3/3/3 48/48/48
f 48/48/48 3/3/3 4/4/4
f 47/47/47 4/4/4 5/5/5
f 46/46/46 5/5/5 6/6/6
f 45/45/45 6/6/6 7/7/7
f 44/44/44 7/7/7 57/57/57
f 58/58/58 8/8/8 9/9/9
f 42/42/42 9/9/9 10/10/10
f 41/41/41 10/10/10 11/11/11
f 40/40/40 11/11/11 12/12/12
f 39/39/39 12/12/12 13/13/13
f 38/38/38 13/13/13 14/14/14
f 37/37/37 14/14/14 15/15/15
f 36/36/36 15/15/15 16/16/16
f 35/35/35 16/16/16 17/17/17
f 34/34/34 17/17/17 18/18/18
f 33/33/33 18/18/18 19/19/19
f 32/32/32 19/19/19 20/20/20
f 31/31/31 20/20/20 21/21/21
f 30/30/30 21/21/21 22/22/22
f 29/29/29 22/22/22 23/23/23
f 56/56/56 23/23/23 24/24/24
f 55/55/55 24/24/24 25/25/25
f 54/54/54 25/25/25 26/26/26
f 53/53/53 26/26/26 27/27/27
f 52/52/52 27/27/27 28/28/28
f 51/51/51 28/28/28 1/1/1
f 50/50/50 51/51/51 1/1/1
f 29/29/29 30/30/30 22/22/22
f 30/30/30 31/31/31 21/21/21
f 31/31/31 32/32/32 20/20/20
f 32/32/32 33/33/33 19/19/19
f 33/33/33 34/34/34 18/18/18
f 34/34/34 35/35/35 17/17/17
f 35/35/35 36/36/36 16/16/16
f 36/36/36 37/37/37 15/15/15
f 37/37/37 38/38/38 14/14/14
f 38/38/38 39/39/39 13/13/13
f 39/39/39 40/40/40 12/12/12
f 40/40/40 41/41/41 11/11/11
f 41/41/41 42/42/42 10/10/10
f 42/42/42 58/58/58 9/9/9
f 43/43/43 44/44/44 57/57/57
f 44/44/44 45/45/45 7/7/7
f 45/45/45 46/46/46 6/6/6
f 46/46/46 47/47/47 5/5/5
f 47/47/47 48/48/48 4/4/4
f 51/51/51 52/52/52 28/28/28
f 52/52/52 53/53/53 27/27/27
f 53/53/53 54/54/54 26/26/26
f 54/54/54 55/55/55 25/25/25
f 55/55/55 56/56/56 24/24/24
f 56/56/56 29/29/29 23/23/23
f 65/65/65 67/67/67 64/64/64
f 65/65/65 66/66/66 67/67/67
f 64/64/64 68/68/68 63/63/63
f 64/64/64 67/67/67 68/68/68
f 63/63/63 69/69/69 62/62/62
f 63/63/63 68/68/68 69/69/69
f 69/69/69 70/70/70 62/62/62
f 62/62/62 70/70/70 61/61/61
f 61/61/61 70/70/70 71/71/71
f 60/60/60 71/71/71 72/72/72
f 59/59/59 72/72/72 73/73/73
f 86/86/86 73/73/73 74/74/74
f 75/75/75 86/86/86 74/74/74
f 75/75/75 85/85/85 86/86/86
f 75/75/75 76/76/76 85/85/85
f 85/85/85 76/76/76 84/84/84
f 84/84/84 76/76/76 77/77/77
f 83/83/83 77/77/77 78/78/78
f 82/82/82 78/78/78 79/79/79
f 81/81/81 79/79/79 80/80/80
f 81/81/81 82/82/82 79/79/79
f 82/82/82 83/83/83 78/78/78
f 83/83/83 84/84/84 77/77/77
f 86/86/86 59/59/59 73/73/73
f 72/72/72 59/59/59 60/60/60
f 71/71/71 60/60/60 61/61/61
f 94/94/94 95/95/95 88/88/88
f 93/93/93 88/88/88 92/92/92
f 93/93/93 94/94/94 88/88/88
f 89/89/89 90/90/90 88/88/88
f 88/88/88 90/90/90 91/91/91
f 92/92/92 88/88/88 91/91/91
f 95/95/95 96/96/96 88/88/88
f 88/88/88 96/96/96 87/87/87
f 87/87/87 96/96/96 97/97/97
f 98/98/98 87/87/87 97/97/97
f 98/98/98 99/99/99 87/87/87
f 87/87/87 99/99/99 100/100/100
f 101/101/101 87/87/87 100/100/100
f 101/101/101 102/102/102 87/87/87
f 87/87/87 102/102/102 103/103/103
f 119/119/119 103/103/103 104/104/104
f 105/105/105 119/119/119 104/104/104
f 105/105/105 106/106/106 119/119/119
f 119/119/119 106/106/106 107/107/107
f 108/108/108 119/119/119 107/107/107
f 108/108/108 109/109/109 119/119/119
f 119/119/119 109/109/109 110/110/110
f 118/118/118 110/110/110 111/111/111
f 112/112/112 118/118/118 111/111/111
f 112/112/112 113/113/113 118/118/118
f 118/118/118 113/113/113 114/114/114
f 115/115/115 118/118/118 114/114/114
f 115/115/115 116/116/116 118/118/118
f 118/118/118 116/116/116 117/117/117
f 118/118/118 119/119/119 110/110/110
f 119/119/119 87/87/87 103/103/103
f 121/121/121 122/122/122 120/120/120
f 120/120/120 122/122/122 123/123/123
f 124/124/124 125/125/125 127/127/127
f 127/127/127 125/125/125 126/126/126
f 128/128/128 129/129/129 131/131/131
f 131/131/131 129/129/129 130/130/130
f 132/132/132 133/133/133 136/136/136
f 136/136/136 133/133/133 134/134/134
f 135/135/135 136/136/136 134/134/134
f 137/137/137 138/138/138 140/140/140
f 140/140/140 138/138/138 139/139/139
